<?xml version="1.0"?><svg width="335.125" height="334.87057" xmlns="http://www.w3.org/2000/svg" xmlns:xlink="http://www.w3.org/1999/xlink">
 <title>Green Circle Transparent</title>
 <defs>
  <linearGradient id="linearGradient3863">
   <stop stop-color="#40bb9b" offset="0" id="stop3865"/>
   <stop stop-color="#d56b96" stop-opacity="0" offset="1" id="stop3867"/>
  </linearGradient>
  <linearGradient id="linearGradient3841">
   <stop stop-color="#d5ffd5" id="stop3843" offset="0"/>
   <stop stop-color="#d5ffd5" stop-opacity="0" id="stop3845" offset="1"/>
  </linearGradient>
  <linearGradient id="linearGradient3829">
   <stop stop-color="#008000" id="stop3831" offset="0"/>
   <stop stop-color="#008000" stop-opacity="0" id="stop3833" offset="1"/>
  </linearGradient>
  <linearGradient id="linearGradient3819">
   <stop stop-color="#00d514" id="stop3821" offset="0"/>
   <stop stop-color="#00d514" stop-opacity="0" id="stop3823" offset="1"/>
  </linearGradient>
  <radialGradient gradientUnits="userSpaceOnUse" gradientTransform="matrix(1,0,0,1.0559006,0,-22.172871)" r="115" fy="396.64789" fx="340.71429" cy="396.64789" cx="340.71429" id="radialGradient3825" xlink:href="#linearGradient3819"/>
  <linearGradient gradientUnits="userSpaceOnUse" y2="361.95401" x2="337.14285" y1="517.32227" x1="338.57144" id="linearGradient3835" xlink:href="#linearGradient3829"/>
  <linearGradient gradientUnits="userSpaceOnUse" y2="514.32092" x2="345.10361" y1="283.98221" x1="339.83643" id="linearGradient3847" xlink:href="#linearGradient3841"/>
  <radialGradient r="115" fy="396.64789" fx="340.71429" cy="396.64789" cx="340.71429" gradientTransform="matrix(1,0,0,1.0559006,0,-22.172871)" gradientUnits="userSpaceOnUse" id="radialGradient3857" xlink:href="#linearGradient3863"/>
  <linearGradient y2="361.95401" x2="337.14285" y1="517.32227" x1="338.57144" gradientUnits="userSpaceOnUse" id="linearGradient3859" xlink:href="#linearGradient3829"/>
  <linearGradient y2="514.32092" x2="345.10361" y1="283.98221" x1="339.83643" gradientUnits="userSpaceOnUse" id="linearGradient3861" xlink:href="#linearGradient3841"/>
  <radialGradient r="115" fy="396.64789" fx="340.71429" cy="396.64789" cx="340.71429" gradientTransform="matrix(1,0,0,1.0559006,0,-22.172871)" gradientUnits="userSpaceOnUse" id="radialGradient3043" xlink:href="#linearGradient3819"/>
  <linearGradient y2="0.357143" x2="0.484472" y1="0.996894" x1="0.490683" id="linearGradient3045" xlink:href="#linearGradient3829"/>
  <linearGradient y2="0.984536" x2="0.519084" y1="0.036083" x1="0.496183" id="linearGradient3047" xlink:href="#linearGradient3841"/>
 </defs>
 <metadata id="metadata7">image/svg+xml</metadata>
 <g display="inline">
  <title>Layer 1</title>
  <g display="none" id="layer1">
   <g transform="matrix(0.998169 0.0604816 -0.0604816 0.998169 715.235 27.2908)" id="g3790">
    <path fill="#34b188" d="m50.083359,307.42041c-2.188919,-1.570007 -8.30806,-6.698914 -9.196426,-9.241943c-15.631866,-44.747314 -1.167465,-71.091675 20.588196,-88.123108c134.072067,-104.958496 258.117737,-161.232635 347.492523,-185.551178c19.731079,-5.368774 40.025513,-6.43512 47.477173,7.764343c8.99826,17.146698 -6.289276,32.967468 -24.856445,52.506897c-62.687317,65.969788 -129.394043,63.240784 -286.270554,220.234283c-22.05127,22.067749 -45.218719,38.284302 -95.234451,2.410706l-0.000015,0z" id="path3792"/>
    <path fill="#3bbbb9" d="m77.900986,197.405273c-3.222565,2.443298 -6.452362,4.937805 -9.6875,7.4375l16.5,52.25l-6.8125,-59.6875zm-11.09375,8.53125c-1.777145,1.376923 -3.563004,2.730957 -5.34375,4.125c-2.295258,1.796844 -4.487595,3.703918 -6.59375,5.71875l17.8125,49.625l-5.875,-59.46875zm-13.15625,11.03125c-5.186081,5.177917 -9.669388,11.087524 -13,17.90625l21.34375,42.375l-8.34375,-60.28125zm-14.46875,21.1875c-6.336288,15.198059 -7.147232,34.651733 1.71875,60.03125c0.888367,2.54303 6.998581,7.648743 9.1875,9.21875c3.182388,2.282532 6.247116,4.377319 9.21875,6.25c-12.980316,-25.158997 -19.967819,-50.341064 -20.125,-75.5z" id="path3794"/>
    <path fill="#a3d234" d="m-44.822021,380.109436c13.89447,-8.642151 28.507751,-23.75354 40.637238,-16.510864c106.607193,-120.479004 253.850021,-214.740173 404.061005,-307.086365c-154.531387,86.133667 -337.032486,204.705383 -444.698242,323.597229z" id="path3796"/>
    <path fill="#a4bd39" d="m294.390015,121.176361c-109.361862,66.138214 -228.600876,150.267792 -318.499985,241.508942c13.718323,-10.820374 20.10849,-3.815613 23.46875,-5.071472c84.955902,-93.818481 188.994934,-167.804962 294.812485,-236.249969c1.395569,-0.898743 2.360657,-1.478668 0.21875,-0.1875z" id="path3798"/>
    <path fill="#19e22a" d="m458.77597,39.124023l-31.624969,1.21875l31.5,6.5625c0.504883,-2.592804 0.565186,-5.176117 0.124969,-7.78125zm-1.812469,13.375l-45.96875,5.03125l37.71875,8.1875c3.544647,-4.508392 6.442871,-8.886017 8.25,-13.21875zm-9.875,15.28125l-54.28125,0.84375l40.21875,14.625c5.125916,-5.395721 9.989746,-10.521271 14.0625,-15.46875zm-57.312531,11.96875l26.437531,19.84375c4.762817,-4.198364 9.47998,-8.680847 14.15625,-13.53125l-40.593781,-6.3125zm-16.156219,3.03125l29.28125,27.28125l-40.40625,-19.21875l27.843719,28.78125c8.438263,-5.823273 16.548737,-11.93808 24.468781,-18.8125l-41.1875,-18.03125zm-8.093781,13.125l27.125031,29.84375c4.38031,-2.77951 8.653198,-5.566956 12.84375,-8.4375l-56.125,-18.375l16.156219,-3.03125zm-18.1875,13.125l32.843781,24.4375c3.535461,-2.147247 7.00769,-4.269653 10.40625,-6.40625l-43.250031,-18.03125zm-21.218719,10.125l37.375,24.34375c4.640442,-2.769653 9.260559,-5.534851 13.65625,-8.1875l-51.03125,-16.15625z" id="path3800"/>
   </g>
   <g transform="matrix(0.993395 -0.114742 0.114742 0.993395 596.395 53.6489)" id="g3771">
    <path fill="#699f44" d="m104.921761,281.82428c-2.188919,-1.570007 -8.30806,-6.698914 -9.196426,-9.241943c-15.631866,-44.747314 -1.167465,-71.091675 20.588196,-88.123108c134.072075,-104.958496 258.117714,-161.232635 347.4925,-185.551178c19.731079,-5.368774 40.025513,-6.43512 47.477173,7.764343c8.998291,17.146698 -6.289246,32.967468 -24.856445,52.506897c-62.687317,65.969788 -129.394012,63.240784 -286.270523,220.234283c-22.05127,22.067749 -45.218719,38.284302 -95.234459,2.410706l-0.000015,0z" id="path2987"/>
    <path fill="#5cdd1d" d="m132.73938,171.809143c-3.222565,2.443298 -6.452354,4.937805 -9.687492,7.4375l16.499992,52.25l-6.8125,-59.6875zm-11.093742,8.53125c-1.777145,1.376923 -3.563004,2.730957 -5.34375,4.125c-2.295258,1.796844 -4.487595,3.703918 -6.59375,5.71875l17.8125,49.625l-5.875,-59.46875zm-13.15625,11.03125c-5.186081,5.177917 -9.669388,11.087524 -13,17.90625l21.34375,42.375l-8.34375,-60.28125zm-14.46875,21.1875c-6.336288,15.198059 -7.147232,34.651733 1.71875,60.03125c0.888367,2.54303 6.998581,7.648743 9.1875,9.21875c3.182388,2.282532 6.247116,4.377319 9.21875,6.25c-12.980316,-25.158997 -19.967819,-50.341064 -20.125,-75.5z" id="path3761"/>
    <path fill="#4e8f13" d="m10.01638,354.513306c13.89447,-8.642151 28.507751,-23.75354 40.637238,-16.510864c106.607201,-120.479004 253.850014,-214.740173 404.060982,-307.086365c-154.531372,86.133667 -337.032463,204.705383 -444.698219,323.597229z" id="path2985"/>
    <path fill="#7baa1e" d="m349.228424,95.580231c-109.361877,66.138214 -228.600883,150.267792 -318.499992,241.508942c13.718323,-10.820374 20.10849,-3.815613 23.46875,-5.071472c84.95591,-93.818481 188.994942,-167.804962 294.812492,-236.249969c1.395569,-0.898743 2.360626,-1.478668 0.21875,-0.1875z" id="path3757"/>
    <path fill="#c6ac2e" d="m513.61438,13.527893l-31.625,1.21875l31.5,6.5625c0.504883,-2.592804 0.565186,-5.176117 0.125,-7.78125zm-1.8125,13.375l-45.96875,5.03125l37.71875,8.1875c3.544678,-4.508392 6.442871,-8.886017 8.25,-13.21875zm-9.875,15.28125l-54.28125,0.84375l40.21875,14.625c5.125916,-5.395721 9.989746,-10.521271 14.0625,-15.46875zm-57.3125,11.96875l26.4375,19.84375c4.762817,-4.198364 9.47998,-8.680847 14.15625,-13.53125l-40.59375,-6.3125zm-16.15625,3.03125l29.28125,27.28125l-40.40625,-19.21875l27.84375,28.78125c8.438232,-5.823273 16.548706,-11.93808 24.46875,-18.8125l-41.1875,-18.03125zm-8.09375,13.125l27.125,29.84375c4.38031,-2.77951 8.653198,-5.566956 12.84375,-8.4375l-56.125,-18.375l16.15625,-3.03125zm-18.1875,13.125l32.84375,24.4375c3.535461,-2.147247 7.00769,-4.269653 10.40625,-6.40625l-43.25,-18.03125zm-21.21875,10.125l37.375,24.34375c4.640442,-2.769653 9.260559,-5.534851 13.65625,-8.1875l-51.03125,-16.15625z" id="path3766"/>
   </g>
   <g transform="matrix(0.980905 -0.194488 0.194488 0.980905 505.061 49.5268)" id="g3802">
    <path fill="#99c648" id="path3804" d="m131.473297,273.360809c-2.188904,-1.570007 -8.308052,-6.698914 -9.196419,-9.241943c-15.631866,-44.747314 -1.167465,-71.091675 20.588203,-88.123108c134.072052,-104.958496 258.117706,-161.232635 347.492493,-185.551178c19.731079,-5.368774 40.025543,-6.43512 47.477203,7.764343c8.998291,17.146698 -6.289246,32.967468 -24.856445,52.506897c-62.687347,65.969788 -129.394043,63.240784 -286.270569,220.234283c-22.051254,22.067749 -45.218704,38.284302 -95.234451,2.410706l-0.000015,0z"/>
    <path fill="#6da419" id="path3806" d="m159.290939,163.345673c-3.222565,2.443298 -6.452362,4.937805 -9.6875,7.4375l16.499985,52.25l-6.812485,-59.6875zm-11.09375,8.53125c-1.777145,1.376923 -3.563004,2.730957 -5.34375,4.125c-2.295258,1.796844 -4.487595,3.703918 -6.593765,5.71875l17.8125,49.625l-5.874985,-59.46875zm-13.156265,11.03125c-5.186066,5.177917 -9.66938,11.087524 -12.999992,17.90625l21.343758,42.375l-8.343765,-60.28125zm-14.468742,21.1875c-6.336288,15.198059 -7.147232,34.651733 1.71875,60.03125c0.888367,2.54303 6.998589,7.648743 9.187492,9.21875c3.182404,2.282532 6.247131,4.377319 9.218765,6.25c-12.980324,-25.158997 -19.967827,-50.341064 -20.125008,-75.5z"/>
    <path fill="#358f22" id="path3808" d="m36.567924,346.049835c13.89447,-8.642151 28.507751,-23.75354 40.637238,-16.510864c106.607185,-120.479004 253.850014,-214.740173 404.060982,-307.086365c-154.531372,86.133667 -337.032471,204.705383 -444.698219,323.597229z"/>
    <path fill="#20d986" id="path3810" d="m375.779968,87.11676c-109.361877,66.138214 -228.600891,150.267792 -318.499992,241.508942c13.718323,-10.820374 20.10849,-3.815613 23.46875,-5.071472c84.955894,-93.818481 188.994926,-167.804962 294.812492,-236.249969c1.395569,-0.898743 2.360626,-1.478668 0.21875,-0.1875z"/>
    <path fill="#66d46f" id="path3812" d="m540.165955,5.064423l-31.625031,1.21875l31.500031,6.5625c0.504883,-2.592804 0.565186,-5.176117 0.125,-7.78125zm-1.8125,13.375l-45.968781,5.03125l37.718781,8.1875c3.544678,-4.508392 6.442871,-8.886017 8.25,-13.21875zm-9.875,15.28125l-54.281281,0.84375l40.218781,14.625c5.125916,-5.395721 9.989746,-10.521271 14.0625,-15.46875zm-57.312531,11.96875l26.4375,19.84375c4.762817,-4.198364 9.47998,-8.680847 14.15625,-13.53125l-40.59375,-6.3125zm-16.15625,3.03125l29.28125,27.28125l-40.40625,-19.21875l27.84375,28.78125c8.438232,-5.823273 16.548706,-11.93808 24.46875,-18.8125l-41.1875,-18.03125zm-8.09375,13.125l27.125,29.84375c4.38031,-2.77951 8.653198,-5.566956 12.84375,-8.4375l-56.125,-18.375l16.15625,-3.03125zm-18.1875,13.125l32.84375,24.4375c3.535461,-2.147247 7.00769,-4.269653 10.40625,-6.40625l-43.25,-18.03125zm-21.21875,10.125l37.375,24.34375c4.640442,-2.769653 9.260559,-5.534851 13.65625,-8.1875l-51.03125,-16.15625z"/>
   </g>
   <g transform="matrix(0.897448 -0.441119 0.441119 0.897448 348.094 136.748)" id="g3778">
    <path fill="#298d6a" id="path3780" d="m220.514816,261.026428c-2.188919,-1.570007 -8.30806,-6.698914 -9.196426,-9.241943c-15.631866,-44.747314 -1.167465,-71.091675 20.588196,-88.123108c134.072052,-104.958496 258.117706,-161.232635 347.492523,-185.551178c19.731079,-5.368774 40.025513,-6.43512 47.477173,7.764343c8.998291,17.146698 -6.289246,32.967468 -24.856445,52.506897c-62.687317,65.969788 -129.394043,63.240784 -286.270569,220.234283c-22.05127,22.067749 -45.218719,38.284302 -95.234436,2.410706l-0.000015,0z"/>
    <path fill="#b436b2" id="path3782" d="m248.332443,151.011292c-3.222565,2.443298 -6.452362,4.937805 -9.6875,7.4375l16.5,52.25l-6.8125,-59.6875zm-11.09375,8.53125c-1.777145,1.376923 -3.563004,2.730957 -5.34375,4.125c-2.295258,1.796844 -4.487595,3.703918 -6.59375,5.71875l17.8125,49.625l-5.875,-59.46875zm-13.15625,11.03125c-5.186081,5.177917 -9.669388,11.087524 -13,17.90625l21.34375,42.375l-8.34375,-60.28125zm-14.46875,21.1875c-6.336288,15.198059 -7.147232,34.651733 1.71875,60.03125c0.888367,2.54303 6.998581,7.648743 9.1875,9.21875c3.182388,2.282532 6.247116,4.377319 9.21875,6.25c-12.980316,-25.158997 -19.967819,-50.341064 -20.125,-75.5z"/>
    <path fill="#c03a58" id="path3784" d="m125.609436,333.715454c13.89447,-8.642151 28.507751,-23.75354 40.637238,-16.510864c106.607178,-120.479004 253.850006,-214.740173 404.061005,-307.086365c-154.531403,86.133667 -337.032486,204.705383 -444.698242,323.597229z"/>
    <path fill="#68cf40" id="path3786" d="m464.821472,74.782379c-109.361877,66.138214 -228.600876,150.267792 -318.499985,241.508942c13.718323,-10.820374 20.10849,-3.815613 23.46875,-5.071472c84.955902,-93.818481 188.994919,-167.804962 294.812485,-236.249969c1.395569,-0.898743 2.360626,-1.478668 0.21875,-0.1875z"/>
    <path fill="#47b831" id="path3788" d="m629.207458,-7.269958l-31.625,1.21875l31.5,6.5625c0.504883,-2.592804 0.565186,-5.176117 0.125,-7.78125zm-1.8125,13.375l-45.96875,5.03125l37.71875,8.1875c3.544678,-4.508392 6.442871,-8.886017 8.25,-13.21875zm-9.875,15.28125l-54.28125,0.84375l40.21875,14.625c5.125916,-5.395721 9.989746,-10.521271 14.0625,-15.46875zm-57.3125,11.96875l26.4375,19.84375c4.762817,-4.198364 9.47998,-8.680847 14.15625,-13.53125l-40.59375,-6.3125zm-16.15625,3.03125l29.28125,27.28125l-40.40625,-19.21875l27.84375,28.78125c8.438232,-5.823273 16.548706,-11.93808 24.46875,-18.8125l-41.1875,-18.03125zm-8.09375,13.125l27.125,29.84375c4.38031,-2.77951 8.653198,-5.566956 12.84375,-8.4375l-56.125,-18.375l16.15625,-3.03125zm-18.1875,13.125l32.84375,24.4375c3.535461,-2.147247 7.00769,-4.269653 10.40625,-6.40625l-43.25,-18.03125zm-21.218781,10.125l37.375031,24.34375c4.640442,-2.769653 9.260559,-5.534851 13.65625,-8.1875l-51.031281,-16.15625z"/>
   </g>
  </g>
  <g opacity="0.4" id="layer2">
   <g id="g3037">
    <path fill="#9dff00" fill-rule="nonzero" stroke-width="5.137851" stroke-miterlimit="4" id="path3815" d="m282.5625,167.435303c0,63.512741 -51.487244,115.000031 -115,115.000031c-63.512756,0 -114.999996,-51.487289 -114.999996,-115.000031c0,-63.512749 51.48724,-115.000027 114.999996,-115.000027c63.512756,0 115,51.487278 115,115.000027z"/>
    <path fill="#9dff00" fill-rule="nonzero" d="m282.5625,167.435303c0,63.512741 -51.487244,115.000031 -115,115.000031c-63.512756,0 -114.999996,-51.487289 -114.999996,-115.000031c0,-63.512749 51.48724,-115.000027 114.999996,-115.000027c63.512756,0 115,51.487278 115,115.000027z" id="path3817"/>
    <path fill="#9dff00" fill-rule="nonzero" d="m282.5625,167.435303c0,63.512741 -51.487244,115.000031 -115,115.000031c-63.512756,0 -114.999996,-51.487289 -114.999996,-115.000031c0,-63.512749 51.48724,-115.000027 114.999996,-115.000027c63.512756,0 115,51.487278 115,115.000027z" id="path3827"/>
    <path opacity="0.75" fill="#9dff00" fill-rule="nonzero" id="path3839" d="m261.133942,120.292435c0,38.265442 -41.893341,69.285721 -93.571426,69.285721c-51.678093,0 -93.571434,-31.020279 -93.571434,-69.285721c0,-38.265442 41.893341,-69.285725 93.571434,-69.285725c51.678085,0 93.571426,31.020283 93.571426,69.285725z"/>
   </g>
  </g>
 </g>
</svg>